<svg width="255" height="58" viewBox="0 0 255 58" fill="none" xmlns="http://www.w3.org/2000/svg">
<path d="M49.5153 8.4939C60.0589 19.049 60.7759 35.7162 51.6662 47.1025L51.6418 47.078C50.3012 48.7632 48.7771 50.2956 47.0997 51.6448L47.1143 51.6594C44.9317 53.4093 42.555 54.797 40.0644 55.8225C37.5929 56.8493 34.9486 57.5433 32.1874 57.8489V57.8284C30.0483 58.0618 27.8882 58.0571 25.7499 57.8145V57.8489C11.2658 56.246 0 43.953 0 29.0259C0 16.9099 7.42209 6.5293 17.963 2.19205C28.4591 -2.14597 40.9852 -0.0453555 49.5153 8.4939Z" fill="#212529"/>
<path fill-rule="evenodd" clip-rule="evenodd" d="M33.6485 37.7603C32.3566 38.4232 30.9068 38.7599 29.3499 38.7599C25.0564 38.7599 21.4214 35.9271 20.1182 32.1007C20.0744 31.9721 20.0329 31.8423 19.9941 31.7113H44.8507C45.0153 30.7312 45.1113 29.7243 45.1113 28.6637C45.1113 23.7632 43.3281 19.628 40.228 16.822C37.5119 14.365 33.7943 12.915 29.3499 12.915C22.9165 12.915 17.361 16.54 14.6587 21.8031C13.5339 23.9781 12.8891 26.4215 12.8891 29.0261C12.8891 31.6308 13.5338 34.0743 14.6586 36.2493C17.3609 41.5123 22.9165 45.1373 29.3499 45.1373C31.318 45.1373 33.1434 44.824 34.8133 44.2487C38.6823 43.0261 41.1556 40.7173 43.1013 37.6595L37.3267 34.3704C36.4187 35.8222 35.0384 36.922 33.6482 37.7561L33.6485 37.7603ZM38.2253 25.6562C37.8274 23.6692 36.6615 21.991 34.9331 20.8495C33.4517 19.8829 31.5721 19.2924 29.3499 19.2924C25.1677 19.2924 21.6101 21.9803 20.2242 25.6562H38.2253Z" fill="white"/>
<path d="M85.2344 21.9375V26H83.3828V14.7969H86.7812C88.0677 14.7969 89.0651 15.0964 89.7734 15.6953C90.4818 16.2943 90.8359 17.138 90.8359 18.2266C90.8359 19.3151 90.4661 20.2057 89.7266 20.8984C88.987 21.5911 87.987 21.9375 86.7266 21.9375H85.2344ZM85.2344 16.3281V20.4219H86.4375C87.2344 20.4219 87.8411 20.237 88.2578 19.8672C88.6745 19.4974 88.8828 18.9766 88.8828 18.3047C88.8828 16.987 88.1172 16.3281 86.5859 16.3281H85.2344ZM98.7656 22.4922H93.3125C93.3333 23.2318 93.5599 23.8021 93.9922 24.2031C94.4297 24.6042 95.0286 24.8047 95.7891 24.8047C96.6432 24.8047 97.4271 24.5495 98.1406 24.0391V25.5C97.4115 25.9583 96.4479 26.1875 95.25 26.1875C94.0729 26.1875 93.1484 25.8255 92.4766 25.1016C91.8099 24.3724 91.4766 23.349 91.4766 22.0312C91.4766 20.7865 91.8438 19.7734 92.5781 18.9922C93.3177 18.2057 94.2344 17.8125 95.3281 17.8125C96.4219 17.8125 97.2682 18.1641 97.8672 18.8672C98.4661 19.5703 98.7656 20.5469 98.7656 21.7969V22.4922ZM97.0156 21.2109C97.0104 20.5599 96.8568 20.0547 96.5547 19.6953C96.2526 19.3307 95.8359 19.1484 95.3047 19.1484C94.7839 19.1484 94.3411 19.3385 93.9766 19.7188C93.6172 20.099 93.3958 20.5964 93.3125 21.2109H97.0156ZM108.148 28.9141H106.641V26H100.945V28.9141H99.4531V24.6172H100.164C101.44 22.7318 102.089 20.526 102.109 18H106.922V24.6172H108.148V28.9141ZM105.109 24.6172V19.375H103.586C103.461 21.3125 102.93 23.0599 101.992 24.6172H105.109ZM115.914 26H114.156V24.75H114.125C113.573 25.7083 112.763 26.1875 111.695 26.1875C110.909 26.1875 110.292 25.974 109.844 25.5469C109.401 25.1198 109.18 24.5547 109.18 23.8516C109.18 22.3411 110.049 21.4609 111.789 21.2109L114.164 20.875C114.164 19.7344 113.622 19.1641 112.539 19.1641C111.586 19.1641 110.727 19.4922 109.961 20.1484V18.5625C110.805 18.0625 111.779 17.8125 112.883 17.8125C114.904 17.8125 115.914 18.8073 115.914 20.7969V26ZM114.164 22.0703L112.484 22.3047C111.964 22.3724 111.57 22.5 111.305 22.6875C111.044 22.8698 110.914 23.1927 110.914 23.6562C110.914 23.9948 111.034 24.2734 111.273 24.4922C111.518 24.7057 111.844 24.8125 112.25 24.8125C112.802 24.8125 113.258 24.6198 113.617 24.2344C113.982 23.8438 114.164 23.3542 114.164 22.7656V22.0703ZM125.398 26H123.094L119.984 22.1016H119.953V26H118.133V18H119.953V21.6797H119.984L122.922 18H125.141L121.812 21.8125L125.398 26ZM134.891 28.9141H133.375V26H126.539V18H128.359V24.6172H131.844V18H133.664V24.6172H134.891V28.9141ZM143.773 26H142.133V20.1328C142.029 20.3411 141.87 20.6302 141.656 21L138.289 26H136.508V18H138.172V23.75C138.229 23.6146 138.352 23.3802 138.539 23.0469L141.953 18H143.773V26ZM152.312 26H150.508V22.8359H149.578C149.13 22.8359 148.724 23.237 148.359 24.0391L147.406 26H145.352L146.617 23.625C146.977 23.0104 147.409 22.6042 147.914 22.4062C147.279 22.3229 146.792 22.0964 146.453 21.7266C146.12 21.3516 145.953 20.8828 145.953 20.3203C145.953 19.6068 146.237 19.0417 146.805 18.625C147.378 18.2083 148.146 18 149.109 18H152.312V26ZM150.508 21.5859V19.3125H149.258C148.279 19.3125 147.789 19.6849 147.789 20.4297C147.789 21.2005 148.271 21.5859 149.234 21.5859H150.508ZM165.562 26H159.273V14.7969H165.312V16.375H161.133V19.5469H164.984V21.1172H161.133V24.4297H165.562V26ZM171.562 22.2969H167.297V20.9609H171.562V22.2969ZM186.023 26H184.18V18.75C184.18 18.1562 184.216 17.4297 184.289 16.5703H184.258C184.143 17.0599 184.042 17.4115 183.953 17.625L180.609 26H179.328L175.977 17.6875C175.883 17.4427 175.784 17.0703 175.68 16.5703H175.648C175.69 17.0182 175.711 17.75 175.711 18.7656V26H173.992V14.7969H176.609L179.555 22.2578C179.779 22.8307 179.924 23.2578 179.992 23.5391H180.031C180.224 22.9505 180.38 22.513 180.5 22.2266L183.5 14.7969H186.023V26ZM195.359 22.4922H189.906C189.927 23.2318 190.154 23.8021 190.586 24.2031C191.023 24.6042 191.622 24.8047 192.383 24.8047C193.237 24.8047 194.021 24.5495 194.734 24.0391V25.5C194.005 25.9583 193.042 26.1875 191.844 26.1875C190.667 26.1875 189.742 25.8255 189.07 25.1016C188.404 24.3724 188.07 23.349 188.07 22.0312C188.07 20.7865 188.438 19.7734 189.172 18.9922C189.911 18.2057 190.828 17.8125 191.922 17.8125C193.016 17.8125 193.862 18.1641 194.461 18.8672C195.06 19.5703 195.359 20.5469 195.359 21.7969V22.4922ZM193.609 21.2109C193.604 20.5599 193.451 20.0547 193.148 19.6953C192.846 19.3307 192.43 19.1484 191.898 19.1484C191.378 19.1484 190.935 19.3385 190.57 19.7188C190.211 20.099 189.99 20.5964 189.906 21.2109H193.609ZM202.539 19.4453H200.258V26H198.438V19.4453H196.141V18H202.539V19.4453ZM210.117 26H208.359V24.75H208.328C207.776 25.7083 206.966 26.1875 205.898 26.1875C205.112 26.1875 204.495 25.974 204.047 25.5469C203.604 25.1198 203.383 24.5547 203.383 23.8516C203.383 22.3411 204.253 21.4609 205.992 21.2109L208.367 20.875C208.367 19.7344 207.826 19.1641 206.742 19.1641C205.789 19.1641 204.93 19.4922 204.164 20.1484V18.5625C205.008 18.0625 205.982 17.8125 207.086 17.8125C209.107 17.8125 210.117 18.8073 210.117 20.7969V26ZM208.367 22.0703L206.688 22.3047C206.167 22.3724 205.773 22.5 205.508 22.6875C205.247 22.8698 205.117 23.1927 205.117 23.6562C205.117 23.9948 205.237 24.2734 205.477 24.4922C205.721 24.7057 206.047 24.8125 206.453 24.8125C207.005 24.8125 207.461 24.6198 207.82 24.2344C208.185 23.8438 208.367 23.3542 208.367 22.7656V22.0703ZM218.953 26H217.133V19.3828H215.5C215.271 21.8568 214.878 23.5964 214.32 24.6016C213.768 25.6016 213.023 26.1016 212.086 26.1016C211.773 26.1016 211.505 26.0573 211.281 25.9688V24.6172C211.464 24.7057 211.659 24.75 211.867 24.75C212.987 24.75 213.706 22.5 214.023 18H218.953V26ZM227.938 26H226.117V19.3828H224.484C224.255 21.8568 223.862 23.5964 223.305 24.6016C222.753 25.6016 222.008 26.1016 221.07 26.1016C220.758 26.1016 220.49 26.0573 220.266 25.9688V24.6172C220.448 24.7057 220.643 24.75 220.852 24.75C221.971 24.75 222.69 22.5 223.008 18H227.938V26Z" fill="#212529"/>
<path fill-rule="evenodd" clip-rule="evenodd" d="M246.34 11.7578L248.517 11.0539C248.767 10.9729 249.037 10.9835 249.279 11.0838C249.522 11.1841 249.72 11.3675 249.84 11.601L250.88 13.6393C250.986 13.8462 251.154 14.0148 251.361 14.1193L253.373 15.1485C253.87 15.4013 254.109 15.9794 253.938 16.5106L253.241 18.6609C253.171 18.8816 253.171 19.1195 253.241 19.3403L253.946 21.5172C254.027 21.7667 254.017 22.0369 253.916 22.2793C253.816 22.5217 253.633 22.7204 253.399 22.8398L251.361 23.8797C251.154 23.9853 250.986 24.1533 250.881 24.3597L249.839 26.399C249.592 26.8811 249.032 27.1136 248.516 26.9462L246.34 26.2412C246.119 26.1697 245.881 26.1697 245.66 26.2412L243.483 26.9451C243.234 27.0259 242.964 27.0153 242.722 26.9153C242.479 26.8152 242.281 26.6322 242.161 26.399L241.12 24.3608C241.015 24.1539 240.847 23.9856 240.64 23.8797L238.601 22.8377C238.367 22.7185 238.184 22.52 238.084 22.2778C237.984 22.0355 237.973 21.7655 238.054 21.5161L238.759 19.3392C238.83 19.1184 238.83 18.8806 238.759 18.6598L238.055 16.4839C237.974 16.2344 237.985 15.9643 238.085 15.7219C238.185 15.4796 238.369 15.2809 238.602 15.1613L240.639 14.1203C240.846 14.0152 241.015 13.8472 241.12 13.6404L242.162 11.601C242.408 11.12 242.969 10.8875 243.484 11.0539L245.661 11.7578C245.881 11.8304 246.119 11.8304 246.34 11.7578Z" fill="#2764E0" stroke="#2764E0" stroke-width="1.66667" stroke-linecap="round" stroke-linejoin="round"/>
<path fill-rule="evenodd" clip-rule="evenodd" d="M248.985 16.2996C249.082 16.1848 249.219 16.111 249.369 16.0928C249.519 16.0746 249.669 16.1134 249.792 16.2015C249.914 16.2896 249.999 16.4205 250.029 16.5681C250.059 16.7158 250.032 16.8693 249.954 16.9983L249.89 17.0868L245.723 21.8865C245.629 21.9947 245.499 22.0656 245.357 22.0866C245.216 22.1075 245.071 22.077 244.95 22.0006L244.862 21.9323L241.83 19.1197C241.721 19.0175 241.654 18.8785 241.643 18.7298C241.631 18.5811 241.675 18.4333 241.766 18.3152C241.857 18.1971 241.989 18.1172 242.136 18.091C242.283 18.0649 242.434 18.0943 242.56 18.1736L242.646 18.2398L245.224 20.6311L248.985 16.2996Z" fill="white"/>
<path d="M91.9531 40L89.8545 47H88.6924L87.25 41.9893C87.1953 41.7979 87.1589 41.5814 87.1406 41.3398H87.1133C87.0996 41.5039 87.0518 41.7158 86.9697 41.9756L85.4043 47H84.2832L82.1641 40H83.3398L84.7891 45.2637C84.8346 45.4232 84.8665 45.6328 84.8848 45.8926H84.9395C84.9531 45.6921 84.9941 45.4779 85.0625 45.25L86.6758 40H87.7012L89.1504 45.2773C89.196 45.446 89.2301 45.6556 89.2529 45.9062H89.3076C89.3167 45.7285 89.3555 45.5189 89.4238 45.2773L90.8457 40H91.9531ZM102.07 40L99.9717 47H98.8096L97.3672 41.9893C97.3125 41.7979 97.276 41.5814 97.2578 41.3398H97.2305C97.2168 41.5039 97.1689 41.7158 97.0869 41.9756L95.5215 47H94.4004L92.2812 40H93.457L94.9062 45.2637C94.9518 45.4232 94.9837 45.6328 95.002 45.8926H95.0566C95.0703 45.6921 95.1113 45.4779 95.1797 45.25L96.793 40H97.8184L99.2676 45.2773C99.3132 45.446 99.3473 45.6556 99.3701 45.9062H99.4248C99.4339 45.7285 99.4727 45.5189 99.541 45.2773L100.963 40H102.07ZM112.188 40L110.089 47H108.927L107.484 41.9893C107.43 41.7979 107.393 41.5814 107.375 41.3398H107.348C107.334 41.5039 107.286 41.7158 107.204 41.9756L105.639 47H104.518L102.398 40H103.574L105.023 45.2637C105.069 45.4232 105.101 45.6328 105.119 45.8926H105.174C105.188 45.6921 105.229 45.4779 105.297 45.25L106.91 40H107.936L109.385 45.2773C109.43 45.446 109.465 45.6556 109.487 45.9062H109.542C109.551 45.7285 109.59 45.5189 109.658 45.2773L111.08 40H112.188ZM113.179 47.1504C112.969 47.1504 112.789 47.0752 112.639 46.9248C112.493 46.7744 112.42 46.5944 112.42 46.3848C112.42 46.1751 112.493 45.9951 112.639 45.8447C112.789 45.6898 112.969 45.6123 113.179 45.6123C113.393 45.6123 113.575 45.6898 113.726 45.8447C113.876 45.9951 113.951 46.1751 113.951 46.3848C113.951 46.5944 113.876 46.7744 113.726 46.9248C113.575 47.0752 113.393 47.1504 113.179 47.1504ZM121.45 43.7803H116.508C116.526 44.5596 116.736 45.1611 117.137 45.585C117.538 46.0088 118.089 46.2207 118.791 46.2207C119.579 46.2207 120.304 45.9609 120.965 45.4414V46.4941C120.35 46.9408 119.536 47.1641 118.524 47.1641C117.535 47.1641 116.758 46.8473 116.193 46.2139C115.628 45.5758 115.346 44.6803 115.346 43.5273C115.346 42.4382 115.653 41.5518 116.269 40.8682C116.888 40.18 117.656 39.8359 118.572 39.8359C119.488 39.8359 120.197 40.1322 120.698 40.7246C121.2 41.3171 121.45 42.1396 121.45 43.1924V43.7803ZM120.302 42.8301C120.297 42.1829 120.14 41.6794 119.83 41.3193C119.525 40.9593 119.099 40.7793 118.552 40.7793C118.023 40.7793 117.574 40.9684 117.205 41.3467C116.836 41.7249 116.608 42.2194 116.521 42.8301H120.302ZM126.734 43.541H123.002V42.6592H126.734V43.541ZM138.697 47H137.576V42.9805C137.576 42.2057 137.455 41.6452 137.214 41.2988C136.977 40.9525 136.576 40.7793 136.011 40.7793C135.532 40.7793 135.124 40.998 134.787 41.4355C134.454 41.873 134.288 42.3971 134.288 43.0078V47H133.167V42.8438C133.167 41.4674 132.636 40.7793 131.574 40.7793C131.082 40.7793 130.676 40.9867 130.357 41.4014C130.038 41.8115 129.879 42.347 129.879 43.0078V47H128.758V40H129.879V41.1074H129.906C130.403 40.2598 131.128 39.8359 132.08 39.8359C132.559 39.8359 132.976 39.9704 133.331 40.2393C133.687 40.5036 133.93 40.8522 134.062 41.2852C134.582 40.319 135.357 39.8359 136.387 39.8359C137.927 39.8359 138.697 40.7861 138.697 42.6865V47ZM146.442 43.7803H141.5C141.518 44.5596 141.728 45.1611 142.129 45.585C142.53 46.0088 143.081 46.2207 143.783 46.2207C144.572 46.2207 145.296 45.9609 145.957 45.4414V46.4941C145.342 46.9408 144.528 47.1641 143.517 47.1641C142.528 47.1641 141.751 46.8473 141.186 46.2139C140.62 45.5758 140.338 44.6803 140.338 43.5273C140.338 42.4382 140.646 41.5518 141.261 40.8682C141.881 40.18 142.648 39.8359 143.564 39.8359C144.48 39.8359 145.189 40.1322 145.69 40.7246C146.192 41.3171 146.442 42.1396 146.442 43.1924V43.7803ZM145.294 42.8301C145.289 42.1829 145.132 41.6794 144.822 41.3193C144.517 40.9593 144.091 40.7793 143.544 40.7793C143.015 40.7793 142.566 40.9684 142.197 41.3467C141.828 41.7249 141.6 42.2194 141.514 42.8301H145.294ZM151.392 46.9316C151.127 47.0775 150.779 47.1504 150.346 47.1504C149.12 47.1504 148.507 46.4668 148.507 45.0996V40.957H147.304V40H148.507V38.291L149.628 37.9287V40H151.392V40.957H149.628V44.9014C149.628 45.3708 149.708 45.7057 149.867 45.9062C150.027 46.1068 150.291 46.207 150.66 46.207C150.943 46.207 151.187 46.1296 151.392 45.9746V46.9316ZM157.899 47H156.778V45.9062H156.751C156.263 46.7448 155.546 47.1641 154.598 47.1641C153.9 47.1641 153.354 46.9795 152.957 46.6104C152.565 46.2412 152.369 45.7513 152.369 45.1406C152.369 43.8327 153.139 43.0716 154.68 42.8574L156.778 42.5635C156.778 41.374 156.298 40.7793 155.336 40.7793C154.493 40.7793 153.732 41.0664 153.053 41.6406V40.4922C153.741 40.0547 154.534 39.8359 155.432 39.8359C157.077 39.8359 157.899 40.7064 157.899 42.4473V47ZM156.778 43.459L155.09 43.6914C154.57 43.7643 154.178 43.8942 153.914 44.0811C153.65 44.2633 153.518 44.5892 153.518 45.0586C153.518 45.4004 153.638 45.6807 153.88 45.8994C154.126 46.1136 154.452 46.2207 154.857 46.2207C155.413 46.2207 155.871 46.027 156.231 45.6396C156.596 45.2477 156.778 44.7533 156.778 44.1562V43.459ZM161.133 47H160.012V36.6367H161.133V47ZM164.523 47H163.402V36.6367H164.523V47ZM167.183 47.1504C166.973 47.1504 166.793 47.0752 166.643 46.9248C166.497 46.7744 166.424 46.5944 166.424 46.3848C166.424 46.1751 166.497 45.9951 166.643 45.8447C166.793 45.6898 166.973 45.6123 167.183 45.6123C167.397 45.6123 167.579 45.6898 167.729 45.8447C167.88 45.9951 167.955 46.1751 167.955 46.3848C167.955 46.5944 167.88 46.7744 167.729 46.9248C167.579 47.0752 167.397 47.1504 167.183 47.1504ZM173.479 41.1348C173.283 40.9844 173 40.9092 172.631 40.9092C172.152 40.9092 171.751 41.1348 171.428 41.5859C171.109 42.0371 170.949 42.6523 170.949 43.4316V47H169.828V40H170.949V41.4424H170.977C171.136 40.9502 171.38 40.5674 171.708 40.2939C172.036 40.016 172.403 39.877 172.809 39.877C173.1 39.877 173.324 39.9089 173.479 39.9727V41.1348ZM180.355 47H179.234V45.8926H179.207C178.742 46.7402 178.022 47.1641 177.047 47.1641C175.379 47.1641 174.545 46.1706 174.545 44.1836V40H175.659V44.0059C175.659 45.4824 176.224 46.2207 177.354 46.2207C177.901 46.2207 178.35 46.0202 178.701 45.6191C179.057 45.2135 179.234 44.6849 179.234 44.0332V40H180.355V47Z" fill="#2764E0"/>
</svg>
