<svg width="198" height="36" viewBox="0 0 198 36" fill="none" xmlns="http://www.w3.org/2000/svg">
<path d="M50.8301 12.4453V16H49.21V6.19727H52.1836C53.3092 6.19727 54.182 6.45931 54.8018 6.9834C55.4215 7.50749 55.7314 8.24577 55.7314 9.19824C55.7314 10.1507 55.4079 10.93 54.7607 11.5361C54.1136 12.1423 53.2386 12.4453 52.1357 12.4453H50.8301ZM50.8301 7.53711V11.1191H51.8828C52.5801 11.1191 53.111 10.9574 53.4756 10.6338C53.8402 10.3102 54.0225 9.85449 54.0225 9.2666C54.0225 8.11361 53.3525 7.53711 52.0127 7.53711H50.8301ZM62.6699 12.9307H57.8984C57.9167 13.5778 58.1149 14.0768 58.4932 14.4277C58.876 14.7786 59.4001 14.9541 60.0654 14.9541C60.8128 14.9541 61.4987 14.7308 62.123 14.2842V15.5625C61.485 15.9635 60.6419 16.1641 59.5938 16.1641C58.5638 16.1641 57.7549 15.8473 57.167 15.2139C56.5837 14.5758 56.292 13.6803 56.292 12.5273C56.292 11.4382 56.6133 10.5518 57.2559 9.86816C57.903 9.18001 58.7051 8.83594 59.6621 8.83594C60.6191 8.83594 61.3597 9.14355 61.8838 9.75879C62.4079 10.374 62.6699 11.2285 62.6699 12.3223V12.9307ZM61.1387 11.8096C61.1341 11.2399 60.9997 10.7979 60.7354 10.4834C60.471 10.1644 60.1064 10.0049 59.6416 10.0049C59.1859 10.0049 58.7985 10.1712 58.4795 10.5039C58.165 10.8366 57.9714 11.2718 57.8984 11.8096H61.1387ZM70.8799 18.5498H69.5605V16H64.5771V18.5498H63.2715V14.79H63.8936C65.0101 13.1403 65.5775 11.2103 65.5957 9H69.8066V14.79H70.8799V18.5498ZM68.2207 14.79V10.2031H66.8877C66.7783 11.8984 66.3135 13.4274 65.4932 14.79H68.2207ZM77.6748 16H76.1367V14.9062H76.1094C75.6263 15.7448 74.9176 16.1641 73.9834 16.1641C73.2952 16.1641 72.7552 15.9772 72.3633 15.6035C71.9759 15.2298 71.7822 14.7354 71.7822 14.1201C71.7822 12.7985 72.5433 12.0283 74.0654 11.8096L76.1436 11.5156C76.1436 10.5176 75.6696 10.0186 74.7217 10.0186C73.8877 10.0186 73.1357 10.3057 72.4658 10.8799V9.49219C73.2041 9.05469 74.0563 8.83594 75.0225 8.83594C76.7907 8.83594 77.6748 9.70638 77.6748 11.4473V16ZM76.1436 12.5615L74.6738 12.7666C74.2181 12.8258 73.874 12.9375 73.6416 13.1016C73.4137 13.2611 73.2998 13.5436 73.2998 13.9492C73.2998 14.2454 73.4046 14.4893 73.6143 14.6807C73.8285 14.8675 74.1133 14.9609 74.4688 14.9609C74.9518 14.9609 75.3506 14.7923 75.665 14.4551C75.984 14.1133 76.1436 13.6849 76.1436 13.1699V12.5615ZM85.9736 16H83.957L81.2363 12.5889H81.209V16H79.6162V9H81.209V12.2197H81.2363L83.8066 9H85.748L82.8359 12.3359L85.9736 16ZM94.2793 18.5498H92.9531V16H86.9717V9H88.5645V14.79H91.6133V9H93.2061V14.79H94.2793V18.5498ZM102.052 16H100.616V10.8662C100.525 11.0485 100.386 11.3014 100.199 11.625L97.2529 16H95.6943V9H97.1504V14.0312C97.2005 13.9128 97.3076 13.7077 97.4717 13.416L100.459 9H102.052V16ZM109.523 16H107.944V13.2314H107.131C106.739 13.2314 106.383 13.5824 106.064 14.2842L105.23 16H103.433L104.54 13.9219C104.854 13.3841 105.233 13.0286 105.675 12.8555C105.119 12.7826 104.693 12.5843 104.396 12.2607C104.105 11.9326 103.959 11.5225 103.959 11.0303C103.959 10.4059 104.207 9.91146 104.704 9.54688C105.205 9.18229 105.878 9 106.721 9H109.523V16ZM107.944 12.1377V10.1484H106.851C105.994 10.1484 105.565 10.4743 105.565 11.126C105.565 11.8005 105.987 12.1377 106.83 12.1377H107.944ZM121.117 16H115.614V6.19727H120.898V7.57812H117.241V10.3535H120.611V11.7275H117.241V14.626H121.117V16ZM126.367 12.7598H122.635V11.5908H126.367V12.7598ZM139.021 16H137.407V9.65625C137.407 9.13672 137.439 8.50098 137.503 7.74902H137.476C137.375 8.17741 137.286 8.48503 137.209 8.67188L134.283 16H133.162L130.229 8.72656C130.147 8.51237 130.061 8.18652 129.97 7.74902H129.942C129.979 8.14095 129.997 8.78125 129.997 9.66992V16H128.493V6.19727H130.783L133.36 12.7256C133.556 13.2269 133.684 13.6006 133.743 13.8467H133.777C133.946 13.3317 134.083 12.9489 134.188 12.6982L136.812 6.19727H139.021V16ZM147.189 12.9307H142.418C142.436 13.5778 142.634 14.0768 143.013 14.4277C143.396 14.7786 143.92 14.9541 144.585 14.9541C145.332 14.9541 146.018 14.7308 146.643 14.2842V15.5625C146.005 15.9635 145.161 16.1641 144.113 16.1641C143.083 16.1641 142.274 15.8473 141.687 15.2139C141.103 14.5758 140.812 13.6803 140.812 12.5273C140.812 11.4382 141.133 10.5518 141.775 9.86816C142.423 9.18001 143.225 8.83594 144.182 8.83594C145.139 8.83594 145.879 9.14355 146.403 9.75879C146.927 10.374 147.189 11.2285 147.189 12.3223V12.9307ZM145.658 11.8096C145.654 11.2399 145.519 10.7979 145.255 10.4834C144.991 10.1644 144.626 10.0049 144.161 10.0049C143.705 10.0049 143.318 10.1712 142.999 10.5039C142.685 10.8366 142.491 11.2718 142.418 11.8096H145.658ZM153.472 10.2646H151.476V16H149.883V10.2646H147.873V9H153.472V10.2646ZM160.103 16H158.564V14.9062H158.537C158.054 15.7448 157.345 16.1641 156.411 16.1641C155.723 16.1641 155.183 15.9772 154.791 15.6035C154.404 15.2298 154.21 14.7354 154.21 14.1201C154.21 12.7985 154.971 12.0283 156.493 11.8096L158.571 11.5156C158.571 10.5176 158.097 10.0186 157.149 10.0186C156.315 10.0186 155.563 10.3057 154.894 10.8799V9.49219C155.632 9.05469 156.484 8.83594 157.45 8.83594C159.218 8.83594 160.103 9.70638 160.103 11.4473V16ZM158.571 12.5615L157.102 12.7666C156.646 12.8258 156.302 12.9375 156.069 13.1016C155.841 13.2611 155.728 13.5436 155.728 13.9492C155.728 14.2454 155.832 14.4893 156.042 14.6807C156.256 14.8675 156.541 14.9609 156.896 14.9609C157.38 14.9609 157.778 14.7923 158.093 14.4551C158.412 14.1133 158.571 13.6849 158.571 13.1699V12.5615ZM167.834 16H166.241V10.21H164.812C164.612 12.3747 164.268 13.8968 163.78 14.7764C163.297 15.6514 162.646 16.0889 161.825 16.0889C161.552 16.0889 161.317 16.0501 161.121 15.9727V14.79C161.281 14.8675 161.451 14.9062 161.634 14.9062C162.614 14.9062 163.243 12.9375 163.521 9H167.834V16ZM175.695 16H174.103V10.21H172.674C172.473 12.3747 172.129 13.8968 171.642 14.7764C171.159 15.6514 170.507 16.0889 169.687 16.0889C169.413 16.0889 169.178 16.0501 168.982 15.9727V14.79C169.142 14.8675 169.313 14.9062 169.495 14.9062C170.475 14.9062 171.104 12.9375 171.382 9H175.695V16Z" fill="#212529"/>
<path fill-rule="evenodd" clip-rule="evenodd" d="M191.255 4.56838L192.888 4.04041C193.075 3.97967 193.278 3.98762 193.459 4.06283C193.641 4.13804 193.79 4.27559 193.88 4.45078L194.66 5.97948C194.74 6.13467 194.865 6.26107 195.021 6.33946L196.53 7.11141C196.903 7.301 197.082 7.73457 196.953 8.13295L196.431 9.74564C196.378 9.91123 196.378 10.0896 196.431 10.2552L196.96 11.8879C197.02 12.075 197.012 12.2777 196.937 12.4595C196.862 12.6413 196.724 12.7903 196.549 12.8798L195.021 13.6598C194.866 13.739 194.74 13.8649 194.661 14.0198L193.879 15.5493C193.694 15.9108 193.274 16.0852 192.887 15.9596L191.255 15.4309C191.089 15.3773 190.911 15.3773 190.745 15.4309L189.112 15.9588C188.925 16.0194 188.723 16.0115 188.541 15.9364C188.36 15.8614 188.211 15.7241 188.121 15.5493L187.34 14.0206C187.261 13.8654 187.135 13.7392 186.98 13.6598L185.451 12.8782C185.276 12.7889 185.138 12.64 185.063 12.4583C184.988 12.2767 184.98 12.0741 185.04 11.8871L185.569 10.2544C185.623 10.0888 185.623 9.91043 185.569 9.74484L185.041 8.11295C184.981 7.92581 184.989 7.72322 185.064 7.54146C185.139 7.3597 185.276 7.21066 185.452 7.12101L186.979 6.34026C187.135 6.26141 187.261 6.13539 187.34 5.98028L188.122 4.45078C188.306 4.09001 188.727 3.91562 189.113 4.04041L190.746 4.56838C190.91 4.62277 191.09 4.62277 191.255 4.56838Z" fill="#2764E0" stroke="#2764E0" stroke-width="1.66667" stroke-linecap="round" stroke-linejoin="round"/>
<path fill-rule="evenodd" clip-rule="evenodd" d="M193.238 7.97484C193.312 7.88873 193.415 7.83333 193.527 7.81969C193.639 7.80605 193.752 7.83517 193.844 7.90124C193.935 7.9673 193.999 8.06548 194.021 8.17622C194.044 8.28696 194.024 8.40213 193.966 8.49881L193.918 8.56521L190.792 12.165C190.722 12.2461 190.624 12.2994 190.518 12.3151C190.412 12.3308 190.303 12.3079 190.212 12.2506L190.147 12.1994L187.872 10.0899C187.791 10.0133 187.741 9.90901 187.732 9.79746C187.723 9.68592 187.756 9.57507 187.824 9.4865C187.893 9.39794 187.992 9.33801 188.102 9.31839C188.212 9.29876 188.326 9.32085 188.42 9.38035L188.484 9.42995L190.418 11.2234L193.238 7.97484Z" fill="white"/>
<path d="M55.6055 33H54.5156L53.625 30.6445H50.0625L49.2246 33H48.1289L51.3516 24.5977H52.3711L55.6055 33ZM53.3027 29.7598L51.9844 26.1797C51.9414 26.0625 51.8984 25.875 51.8555 25.6172H51.832C51.793 25.8555 51.748 26.043 51.6973 26.1797L50.3906 29.7598H53.3027ZM56.7188 33V27H59.332C59.9219 27 60.3867 27.1309 60.7266 27.3926C61.0703 27.6543 61.2422 28.0117 61.2422 28.4648C61.2422 29.2422 60.8594 29.7148 60.0938 29.8828C61.0117 30 61.4707 30.4629 61.4707 31.2715C61.4707 31.7598 61.2812 32.1699 60.9023 32.502C60.5273 32.834 60.0605 33 59.502 33H56.7188ZM57.6797 27.8203V29.5078H59.1211C59.8945 29.5078 60.2812 29.207 60.2812 28.6055C60.2812 28.082 59.9336 27.8203 59.2383 27.8203H57.6797ZM57.6797 30.3281V32.1797H59.3438C60.1211 32.1797 60.5098 31.8652 60.5098 31.2363C60.5098 30.6309 60.0742 30.3281 59.2031 30.3281H57.6797ZM66.7441 27.8203H64.9453V33H63.9844V27.8203H62.1797V27H66.7441V27.8203ZM70.1836 33.1406C69.2969 33.1406 68.5879 32.8613 68.0566 32.3027C67.5293 31.7402 67.2656 30.9961 67.2656 30.0703C67.2656 29.0625 67.541 28.2754 68.0918 27.709C68.6426 27.1426 69.3867 26.8594 70.3242 26.8594C71.2188 26.8594 71.916 27.1348 72.416 27.6855C72.9199 28.2363 73.1719 29 73.1719 29.9766C73.1719 30.9336 72.9004 31.7012 72.3574 32.2793C71.8184 32.8535 71.0938 33.1406 70.1836 33.1406ZM70.2539 27.668C69.6367 27.668 69.1484 27.8789 68.7891 28.3008C68.4297 28.7188 68.25 29.2969 68.25 30.0352C68.25 30.7461 68.4316 31.3066 68.7949 31.7168C69.1582 32.127 69.6445 32.332 70.2539 32.332C70.875 32.332 71.3516 32.1309 71.6836 31.7285C72.0195 31.3262 72.1875 30.7539 72.1875 30.0117C72.1875 29.2617 72.0195 28.6836 71.6836 28.2773C71.3516 27.8711 70.875 27.668 70.2539 27.668ZM75.6914 32.1328H75.668V35.7598H74.707V27H75.668V28.0547H75.6914C76.1641 27.2578 76.8555 26.8594 77.7656 26.8594C78.5391 26.8594 79.1426 27.1289 79.5762 27.668C80.0098 28.2031 80.2266 28.9219 80.2266 29.8242C80.2266 30.8281 79.9824 31.6328 79.4941 32.2383C79.0059 32.8398 78.3379 33.1406 77.4902 33.1406C76.7129 33.1406 76.1133 32.8047 75.6914 32.1328ZM75.668 29.7129V30.5508C75.668 31.0469 75.8281 31.4688 76.1484 31.8164C76.4727 32.1602 76.8828 32.332 77.3789 32.332C77.9609 32.332 78.416 32.1094 78.7441 31.6641C79.0762 31.2188 79.2422 30.5996 79.2422 29.8066C79.2422 29.1387 79.0879 28.6152 78.7793 28.2363C78.4707 27.8574 78.0527 27.668 77.5254 27.668C76.9668 27.668 76.5176 27.8633 76.1777 28.2539C75.8379 28.6406 75.668 29.127 75.668 29.7129ZM91.5352 33H90.5859V28.0547C90.5 28.3047 90.3672 28.6719 90.1875 29.1562L88.6875 33H87.8262L86.2793 29.1562C86.1973 28.9492 86.0645 28.582 85.8809 28.0547V33H85.0547V27H86.2793L87.8613 30.9141C87.9746 31.1992 88.1191 31.5938 88.2949 32.0977L88.7227 30.9375L90.2578 27H91.5352V33ZM97.7754 33H96.8145V32.0625H96.791C96.373 32.7812 95.7578 33.1406 94.9453 33.1406C94.3477 33.1406 93.8789 32.9824 93.5391 32.666C93.2031 32.3496 93.0352 31.9297 93.0352 31.4062C93.0352 30.2852 93.6953 29.6328 95.0156 29.4492L96.8145 29.1973C96.8145 28.1777 96.4023 27.668 95.5781 27.668C94.8555 27.668 94.2031 27.9141 93.6211 28.4062V27.4219C94.2109 27.0469 94.8906 26.8594 95.6602 26.8594C97.0703 26.8594 97.7754 27.6055 97.7754 29.0977V33ZM96.8145 29.9648L95.3672 30.1641C94.9219 30.2266 94.5859 30.3379 94.3594 30.498C94.1328 30.6543 94.0195 30.9336 94.0195 31.3359C94.0195 31.6289 94.123 31.8691 94.3301 32.0566C94.541 32.2402 94.8203 32.332 95.168 32.332C95.6445 32.332 96.0371 32.166 96.3457 31.834C96.6582 31.498 96.8145 31.0742 96.8145 30.5625V29.9648ZM103.354 27.8203H101.555V33H100.594V27.8203H98.7891V27H103.354V27.8203ZM109.107 30.2402H104.871C104.887 30.9082 105.066 31.4238 105.41 31.7871C105.754 32.1504 106.227 32.332 106.828 32.332C107.504 32.332 108.125 32.1094 108.691 31.6641V32.5664C108.164 32.9492 107.467 33.1406 106.6 33.1406C105.752 33.1406 105.086 32.8691 104.602 32.3262C104.117 31.7793 103.875 31.0117 103.875 30.0234C103.875 29.0898 104.139 28.3301 104.666 27.7441C105.197 27.1543 105.855 26.8594 106.641 26.8594C107.426 26.8594 108.033 27.1133 108.463 27.6211C108.893 28.1289 109.107 28.834 109.107 29.7363V30.2402ZM108.123 29.4258C108.119 28.8711 107.984 28.4395 107.719 28.1309C107.457 27.8223 107.092 27.668 106.623 27.668C106.17 27.668 105.785 27.8301 105.469 28.1543C105.152 28.4785 104.957 28.9023 104.883 29.4258H108.123ZM111.551 32.1328H111.527V35.7598H110.566V27H111.527V28.0547H111.551C112.023 27.2578 112.715 26.8594 113.625 26.8594C114.398 26.8594 115.002 27.1289 115.436 27.668C115.869 28.2031 116.086 28.9219 116.086 29.8242C116.086 30.8281 115.842 31.6328 115.354 32.2383C114.865 32.8398 114.197 33.1406 113.35 33.1406C112.572 33.1406 111.973 32.8047 111.551 32.1328ZM111.527 29.7129V30.5508C111.527 31.0469 111.688 31.4688 112.008 31.8164C112.332 32.1602 112.742 32.332 113.238 32.332C113.82 32.332 114.275 32.1094 114.604 31.6641C114.936 31.2188 115.102 30.5996 115.102 29.8066C115.102 29.1387 114.947 28.6152 114.639 28.2363C114.33 27.8574 113.912 27.668 113.385 27.668C112.826 27.668 112.377 27.8633 112.037 28.2539C111.697 28.6406 111.527 29.127 111.527 29.7129ZM122.648 33H121.781V28.2129C121.695 28.3809 121.564 28.6172 121.389 28.9219L118.617 33H117.621V27H118.5V31.7285C118.547 31.6152 118.648 31.4219 118.805 31.1484L121.652 27H122.648V33ZM128.889 33H127.928V32.0625H127.904C127.486 32.7812 126.871 33.1406 126.059 33.1406C125.461 33.1406 124.992 32.9824 124.652 32.666C124.316 32.3496 124.148 31.9297 124.148 31.4062C124.148 30.2852 124.809 29.6328 126.129 29.4492L127.928 29.1973C127.928 28.1777 127.516 27.668 126.691 27.668C125.969 27.668 125.316 27.9141 124.734 28.4062V27.4219C125.324 27.0469 126.004 26.8594 126.773 26.8594C128.184 26.8594 128.889 27.6055 128.889 29.0977V33ZM127.928 29.9648L126.48 30.1641C126.035 30.2266 125.699 30.3379 125.473 30.498C125.246 30.6543 125.133 30.9336 125.133 31.3359C125.133 31.6289 125.236 31.8691 125.443 32.0566C125.654 32.2402 125.934 32.332 126.281 32.332C126.758 32.332 127.15 32.166 127.459 31.834C127.771 31.498 127.928 31.0742 127.928 30.5625V29.9648ZM135.076 33H134.121V27.8145H132.727C132.566 29.7559 132.291 31.1191 131.9 31.9043C131.514 32.6895 130.992 33.082 130.336 33.082C130.137 33.082 129.965 33.0547 129.82 33V32.1738C129.957 32.2441 130.105 32.2793 130.266 32.2793C131.125 32.2793 131.678 30.5195 131.924 27H135.076V33ZM141.322 33H140.361V32.0625H140.338C139.92 32.7812 139.305 33.1406 138.492 33.1406C137.895 33.1406 137.426 32.9824 137.086 32.666C136.75 32.3496 136.582 31.9297 136.582 31.4062C136.582 30.2852 137.242 29.6328 138.562 29.4492L140.361 29.1973C140.361 28.1777 139.949 27.668 139.125 27.668C138.402 27.668 137.75 27.9141 137.168 28.4062V27.4219C137.758 27.0469 138.438 26.8594 139.207 26.8594C140.617 26.8594 141.322 27.6055 141.322 29.0977V33ZM140.361 29.9648L138.914 30.1641C138.469 30.2266 138.133 30.3379 137.906 30.498C137.68 30.6543 137.566 30.9336 137.566 31.3359C137.566 31.6289 137.67 31.8691 137.877 32.0566C138.088 32.2402 138.367 32.332 138.715 32.332C139.191 32.332 139.584 32.166 139.893 31.834C140.205 31.498 140.361 31.0742 140.361 30.5625V29.9648Z" fill="#6C757D"/>
<path d="M30.7336 5.27208C37.278 11.8235 37.723 22.1686 32.0687 29.236L32.0535 29.2209C31.2214 30.2668 30.2754 31.2179 29.2343 32.0554L29.2433 32.0645C27.8887 33.1506 26.4135 34.0119 24.8676 34.6484C23.3335 35.2857 21.6923 35.7166 19.9784 35.9062V35.8935C18.6507 36.0383 17.3099 36.0354 15.9827 35.8848V35.9062C6.99254 34.9113 0 27.2812 0 18.0161C0 10.4958 4.60681 4.05267 11.1494 1.36059C17.6643 -1.33198 25.4391 -0.0281517 30.7336 5.27208Z" fill="#C0C4C7"/>
<path fill-rule="evenodd" clip-rule="evenodd" d="M20.8852 23.4368C20.0833 23.8483 19.1834 24.0573 18.2171 24.0573C15.5521 24.0573 13.2959 22.299 12.487 19.924C12.4598 19.8441 12.4341 19.7636 12.41 19.6823H27.8382C27.9404 19.074 28 18.449 28 17.7906C28 14.749 26.8932 12.1823 24.9689 10.4406C23.2831 8.91562 20.9757 8.01562 18.2171 8.01562C14.2239 8.01562 10.7757 10.2656 9.0984 13.5324C8.40024 14.8823 8 16.399 8 18.0156C8 19.6323 8.40016 21.149 9.09833 22.499C10.7756 25.7656 14.2239 28.0156 18.2171 28.0156C19.4386 28.0156 20.5717 27.8212 21.6081 27.4641C24.0096 26.7053 25.5447 25.2722 26.7524 23.3743L23.1682 21.3328C22.6046 22.2339 21.7478 22.9165 20.885 23.4342L20.8852 23.4368ZM23.7259 15.924C23.479 14.6906 22.7553 13.649 21.6825 12.9405C20.763 12.3405 19.5964 11.974 18.2171 11.974C15.6212 11.974 13.4131 13.6424 12.5528 15.924H23.7259Z" fill="white"/>
</svg>
