<svg width="20" height="19" viewBox="0 0 20 19" fill="none" xmlns="http://www.w3.org/2000/svg">
<path d="M12.8105 7.18409C12.5895 7.18409 12.355 7.0138 12.2865 6.80397L10.1237 0.157408C10.0552 -0.0524695 9.94477 -0.0524695 9.87632 0.157408L7.71388 6.80397C7.64543 7.01384 7.41087 7.18409 7.1899 7.18409H0.191068C-0.0298985 7.18409 -0.0643214 7.28922 0.114589 7.41914L5.77644 11.5263C5.95536 11.6562 6.04503 11.9316 5.97658 12.1414L3.81419 18.7876C3.74574 18.9975 3.83542 19.0626 4.01433 18.9327L9.67618 14.8256C9.85509 14.6957 10.145 14.6957 10.3239 14.8256L15.9857 18.9331C16.1646 19.063 16.2543 18.9979 16.1859 18.788L14.0234 12.1418C13.955 11.932 14.0446 11.6566 14.2236 11.5267L19.8854 7.41954C20.0643 7.28962 20.0299 7.18448 19.8089 7.18448H12.8105V7.18409Z" fill="#2764E0"/>
</svg>
